<?xml version="1.0" encoding="UTF-8" standalone="no"?>
<svg
   viewBox="0 0 32.786777 26.386204"
   version="1.1"
   id="svg10"
   sodipodi:docname="gcloud.svg"
   inkscape:version="1.3 (0e150ed6c4, 2023-07-21)"
   width="32.786777"
   height="26.386204"
   xmlns:inkscape="http://www.inkscape.org/namespaces/inkscape"
   xmlns:sodipodi="http://sodipodi.sourceforge.net/DTD/sodipodi-0.dtd"
   xmlns="http://www.w3.org/2000/svg"
   xmlns:svg="http://www.w3.org/2000/svg">
  <sodipodi:namedview
     id="namedview10"
     pagecolor="#ffffff"
     bordercolor="#000000"
     borderopacity="0.25"
     inkscape:showpageshadow="2"
     inkscape:pageopacity="0.0"
     inkscape:pagecheckerboard="0"
     inkscape:deskcolor="#d1d1d1"
     inkscape:zoom="6.9060773"
     inkscape:cx="16.3624"
     inkscape:cy="13.1768"
     inkscape:window-width="1920"
     inkscape:window-height="996"
     inkscape:window-x="0"
     inkscape:window-y="0"
     inkscape:window-maximized="1"
     inkscape:current-layer="svg10" />
  <defs
     id="defs1">
    <style
       id="style1">.cls-1{fill:#ea4335;}.cls-2{fill:#4285f4;}.cls-3{fill:#34a853;}.cls-4{fill:#fbbc05;}.cls-5{fill:#5f6368;}</style>
  </defs>
  <g
     id="g7"
     transform="translate(-66.563702,-0.46378724)">
    <path
       class="cls-1"
       d="m 87.368388,7.7297107 h 1 l 2.85,-2.85 0.14,-1.21 a 12.81,12.81 0 0 0 -20.84,6.25 1.55,1.55 0 0 1 1,-0.06 l 5.7,-0.94 c 0,0 0.29,-0.48 0.44,-0.45 a 7.11,7.11 0 0 1 9.73,-0.74 z"
       id="path1" />
    <path
       class="cls-2"
       d="m 95.278388,9.9197107 a 12.84,12.84 0 0 0 -3.87,-6.24 l -4,4 a 7.11,7.11 0 0 1 2.61,5.6400003 v 0.71 a 3.56,3.56 0 1 1 0,7.12 h -7.12 l -0.71,0.72 v 4.27 l 0.71,0.71 h 7.12 a 9.26,9.26 0 0 0 5.26,-16.9300003 z"
       id="path2" />
    <path
       class="cls-3"
       d="m 75.768388,26.809711 h 7.12 v -5.7 h -7.12 a 3.54,3.54 0 0 1 -1.47,-0.32 l -1,0.31 -2.87,2.85 -0.25,1 a 9.21,9.21 0 0 0 5.59,1.86 z"
       id="path3" />
    <path
       class="cls-4"
       d="m 75.768388,8.3197107 a 9.26,9.26 0 0 0 -5.59,16.6000003 l 4.13,-4.13 a 3.56,3.56 0 1 1 4.71,-4.71 l 4.13,-4.13 a 9.25,9.25 0 0 0 -7.38,-3.6300003 z"
       id="path4" />
  </g>
</svg>
