<svg xmlns="http://www.w3.org/2000/svg" id="Layer_1" version="1.2" viewBox="0 0 2289 2289" preserveAspectRatio="xMidYMid meet" baseProfile="tiny-ps" xml:space="preserve"><title>BuildingBloCS</title>
  
  <g id="Layer_2">
    <rect width="2289" height="2343.83" stroke="#000" stroke-miterlimit="10"/>
  </g>
  <g id="Layer_11" data-name="Layer_1">
    <path d="M1173.71,1222.23c-.21-136.55-.54-273.1-.17-409.63.01-5.63,5.38-13.53,10.57-16.53,88.72-51.17,177.73-101.87,266.83-152.39,31.73-17.99,63.91-35.25,97.94-53.98v68.09c0,113.38-.32,226.77.44,340.14.09,12.7-5.03,19.22-14.65,24.63-87.12,49-174.24,98.02-261.44,146.88-31.84,17.85-63.91,35.31-95.88,52.95-1.21-.1-2.42-.15-3.64-.16h0Z" fill="#ffa216"/>
    <path d="M338.21,1274.85c52.59-29.81,102.69-58.15,152.73-86.57,62.12-35.29,124.2-70.63,186.28-105.97,9.72-5.53,19.01-11.89,29.15-16.52,3.87-1.77,10.47-1.36,14.24.78,68.09,38.59,135.8,77.83,203.87,116.45,46.46,26.35,93.39,51.93,140.04,77.97,6.95,3.88,13.56,8.35,22.71,14.04-27.32,15.64-52.86,30.34-78.48,44.91-62.62,35.63-125.28,71.18-187.92,106.77-33.48,19.03-66.84,38.27-100.58,56.85-3.75,2.07-10.68,2.34-14.32.3-49.3-27.63-98.26-55.89-147.36-83.87-55.6-31.68-111.27-63.23-166.92-94.83-16.72-9.5-33.46-18.98-53.44-30.31h0Z" fill="#ffa216"/>
    <path d="M770.19,541.32c32.34-18.63,60.7-35.11,89.22-51.35,63.64-36.27,127.33-72.47,191.06-108.59,26.46-15,53.33-29.32,79.5-44.79,10.51-6.21,18.7-5.71,29.2.36,69.85,40.4,140.03,80.25,210.21,120.08,44.83,25.44,89.88,50.51,134.8,75.8,3.63,2.04,7.02,4.47,13.89,8.89-21.58,12.37-40.6,23.32-59.69,34.19-98.22,55.91-196.59,111.57-294.54,167.94-14.28,8.22-25.95,7.36-39.55-.44-79.66-45.79-159.57-91.17-239.4-136.7-37.02-21.12-74.07-42.23-114.7-65.38h0Z" fill="#ffa216"/>
    <path d="M1545.11,1503.77c-39.21,22.7-78.31,45.61-117.67,68.07-69,39.38-138.09,78.62-207.35,117.57-13.76,7.74-28.44,13.9-45.49,22.14-.62-8.07-1.46-13.94-1.46-19.82-.07-128.44.13-256.87-.36-385.31-.05-12.32,4.13-18.22,14.94-24.22,68.95-38.28,137.11-77.9,205.98-116.31,48.2-26.89,97.11-52.55,145.79-78.63,1.42-.76,3.73.06,5.63.15,1.04,1.03,2.08,2.05,3.12,3.07v410.23c-1.04,1.02-2.08,2.04-3.13,3.06Z" fill="#ffa216"/>
    <path d="M1112.28,1223.27c-20.21-10.76-41.02-21.24-61.24-32.73-52.93-30.07-105.45-60.84-158.41-90.85-45.94-26.02-92.45-51.11-138.19-77.47-5.31-3.06-10.36-11.62-10.39-17.65-.58-137.24-.45-274.47-.45-413.33,50.76,28.46,100.47,56.21,150.04,84.16,56.27,31.72,112.45,63.61,168.66,95.44,15.68,8.88,31.6,17.4,46.83,26.98,3.39,2.13,6.15,8.01,6.15,12.16.05,136.62-.26,273.23-.56,409.85,0,.46-.63.92-2.45,3.44h.01Z" fill="#ffa216"/>
    <path d="M1607.04,1466.77c-.22-136.63-.53-273.28-.24-409.91.01-5.3,4.52-12.76,9.2-15.54,44.86-26.64,90.11-52.66,135.44-78.51,72.84-41.55,145.83-82.84,218.81-124.15,2.02-1.14,4.65-1.25,8.11-2.12v193.87c0,70.21-.45,140.42.39,210.61.15,13.59-3.8,21.74-15.65,28.28-45.7,25.24-91.15,50.94-136.52,76.75-70.16,39.92-140.18,80.09-210.32,120.05-1.52.87-3.72.58-5.61.83-1.2-.1-2.4-.15-3.61-.16h0Z" fill="#ffa216"/>
    <path d="M678.17,1956.21c-34.01-18.85-67.09-36.96-99.95-55.47-54.06-30.47-107.98-61.19-161.94-91.85-32.94-18.72-66.05-37.19-98.47-56.77-4.38-2.64-7.23-11.09-7.24-16.85-.4-135.93-.31-271.86-.31-411.27,22.84,12.49,44.18,23.82,65.2,35.69,63.23,35.71,126.42,71.48,189.45,107.52,36.12,20.65,72.04,41.66,107.67,63.11,4.4,2.65,9.22,9,9.23,13.66.44,134.68.29,269.35.14,404.03,0,1.61-1.43,3.23-3.79,8.2h.01Z" fill="#ffa216"/>
    <path d="M1115.56,1325.7c0,137.84.08,275.01-.34,412.19-.02,4.96-3.68,12.11-7.87,14.52-67.31,38.68-135.05,76.65-202.55,115-46.44,26.37-92.65,53.13-139.08,79.52-6.28,3.56-13.23,5.97-22.12,9.92v-20.42c0-127.84.32-255.68-.42-383.51-.09-15.68,6.07-22.8,19.14-29.97,62.09-34.04,123.58-69.16,185.23-103.96,54.06-30.52,108.06-61.13,162.12-91.65,1.48-.84,3.38-.97,5.88-1.64h0Z" fill="#ffa216"/>
    <path d="M1607.04,973.99v-376.3c2.48-.05,4.98-.11,7.46-.16,34.9,18.76,70.07,37.05,104.63,56.4,60.08,33.63,119.79,67.9,179.63,101.96,16.5,9.4,32.88,19.02,51.58,29.84-33.88,19.62-65.26,38.03-96.87,56.04-63.05,35.92-126.14,71.78-189.4,107.34-17.62,9.9-35.92,18.66-53.91,27.94-1.04-1.02-2.08-2.05-3.12-3.06h0Z" fill="#ffa216"/>
    <path d="M1607.04,973.99c1.04,1.02,2.08,2.04,3.12,3.06-1.04-1.02-2.08-2.05-3.12-3.06Z" fill="#ffa216"/>
    <path d="M1173.71,1222.23c1.22.01,2.43.06,3.63.16-.97.85-1.95,1.72-2.91,2.58-.24-.91-.48-1.83-.72-2.74Z" fill="#ffa216"/>
    <path d="M1607.04,1466.77c1.21.01,2.42.06,3.62.16-.97.86-1.94,1.73-2.91,2.58-.24-.91-.47-1.83-.71-2.74Z" fill="#ffa216"/>
    <path d="M1545.11,1503.77c1.05-1.02,2.09-2.05,3.13-3.06-1.04,1.02-2.08,2.04-3.13,3.06Z" fill="#ffa216"/>
  </g>
</svg>