<svg width="14773" height="2638" viewBox="0 0 14773 2638" fill="none" xmlns="http://www.w3.org/2000/svg">
<path d="M1776.33 1406.7C1776.09 1252.26 1775.71 1097.82 1776.13 943.39C1776.15 937.02 1782.22 928.09 1788.09 924.7C1888.4 866.82 1989.05 809.48 2089.8 752.34C2125.68 731.99 2162.06 712.47 2200.54 691.29C2200.54 719.11 2200.54 743.7 2200.54 768.3C2200.54 896.54 2200.18 1024.78 2201.04 1153.01C2201.14 1167.38 2195.35 1174.75 2184.47 1180.87C2085.96 1236.29 1987.46 1291.73 1888.86 1347C1852.85 1367.18 1816.59 1386.93 1780.44 1406.88C1779.07 1406.77 1777.7 1406.71 1776.33 1406.7Z" fill="#FFA216"/>
<path d="M831.598 1466.22C891.068 1432.5 947.708 1400.45 1004.3 1368.3C1074.54 1328.39 1144.74 1288.42 1214.93 1248.45C1225.92 1242.19 1236.43 1235 1247.89 1229.76C1252.26 1227.76 1259.73 1228.23 1263.99 1230.64C1340.98 1274.29 1417.54 1318.67 1494.51 1362.35C1547.05 1392.16 1600.11 1421.09 1652.86 1450.54C1660.72 1454.93 1668.19 1459.99 1678.54 1466.42C1647.65 1484.11 1618.77 1500.74 1589.8 1517.22C1518.99 1557.51 1448.14 1597.72 1377.31 1637.98C1339.45 1659.5 1301.73 1681.26 1263.58 1702.28C1259.34 1704.62 1251.5 1704.92 1247.39 1702.62C1191.64 1671.36 1136.29 1639.4 1080.77 1607.76C1017.9 1571.93 954.948 1536.24 892.028 1500.5C873.118 1489.75 854.198 1479.03 831.598 1466.22Z" fill="#FFA216"/>
<path d="M1320.06 636.57C1356.63 615.5 1388.7 596.86 1420.94 578.49C1492.9 537.47 1564.91 496.52 1636.97 455.67C1666.89 438.7 1697.28 422.51 1726.87 405.01C1738.75 397.99 1748.01 398.55 1759.89 405.42C1838.87 451.11 1918.22 496.19 1997.58 541.23C2048.27 570 2099.21 598.36 2150 626.96C2154.1 629.27 2157.93 632.02 2165.7 637.01C2141.3 651 2119.79 663.39 2098.21 675.68C1987.15 738.92 1875.92 801.87 1765.17 865.63C1749.02 874.93 1735.82 873.96 1720.45 865.13C1630.37 813.34 1540.01 762.01 1449.75 710.52C1407.89 686.63 1366 662.76 1320.06 636.57Z" fill="#FFA216"/>
<path d="M2196.28 1725.13C2151.94 1750.81 2107.73 1776.72 2063.22 1802.13C1985.2 1846.66 1907.08 1891.05 1828.77 1935.1C1813.21 1943.85 1796.61 1950.82 1777.33 1960.14C1776.63 1951.01 1775.68 1944.37 1775.68 1937.72C1775.6 1792.46 1775.83 1647.19 1775.27 1501.93C1775.22 1487.99 1779.94 1481.32 1792.17 1474.53C1870.13 1431.24 1947.2 1386.42 2025.07 1342.98C2079.58 1312.57 2134.88 1283.54 2189.92 1254.05C2191.53 1253.19 2194.14 1254.12 2196.29 1254.22C2197.47 1255.38 2198.64 1256.53 2199.82 1257.69C2199.82 1412.35 2199.82 1567.01 2199.82 1721.67C2198.64 1722.83 2197.46 1723.98 2196.28 1725.13Z" fill="#FFA216"/>
<path d="M1706.86 1407.88C1684.01 1395.71 1660.48 1383.85 1637.62 1370.86C1577.77 1336.85 1518.38 1302.05 1458.5 1268.11C1406.55 1238.67 1353.97 1210.3 1302.25 1180.48C1296.25 1177.02 1290.53 1167.34 1290.5 1160.52C1289.84 1005.3 1289.99 850.08 1289.99 693.03C1347.39 725.22 1403.59 756.6 1459.65 788.22C1523.28 824.1 1586.8 860.17 1650.36 896.17C1668.09 906.21 1686.09 915.85 1703.32 926.68C1707.15 929.09 1710.27 935.74 1710.27 940.43C1710.33 1094.95 1709.98 1249.47 1709.63 1403.99C1709.63 1404.51 1708.92 1405.03 1706.86 1407.88Z" fill="#FFA216"/>
<path d="M2266.3 1683.29C2266.06 1528.75 2265.7 1374.2 2266.03 1219.66C2266.04 1213.67 2271.14 1205.23 2276.43 1202.09C2327.16 1171.96 2378.32 1142.53 2429.58 1113.29C2511.94 1066.3 2594.47 1019.59 2676.99 972.87C2679.28 971.58 2682.25 971.46 2686.16 970.47C2686.16 1044.06 2686.16 1116.91 2686.16 1189.75C2686.16 1269.16 2685.66 1348.57 2686.6 1427.96C2686.78 1443.32 2682.31 1452.54 2668.91 1459.94C2617.23 1488.49 2565.84 1517.55 2514.54 1546.75C2435.21 1591.9 2356.04 1637.33 2276.73 1682.53C2275.01 1683.51 2272.52 1683.18 2270.39 1683.47C2269.03 1683.36 2267.67 1683.3 2266.3 1683.29Z" fill="#FFA216"/>
<path d="M1216.01 2236.86C1177.56 2215.54 1140.15 2195.06 1103 2174.12C1041.87 2139.66 980.899 2104.92 919.889 2070.24C882.639 2049.06 845.199 2028.17 808.549 2006.03C803.599 2003.04 800.379 1993.49 800.359 1986.97C799.909 1833.23 800.009 1679.49 800.009 1521.81C825.839 1535.93 849.959 1548.75 873.729 1562.18C945.219 1602.56 1016.68 1643.02 1087.95 1683.78C1128.79 1707.14 1169.41 1730.9 1209.7 1755.16C1214.68 1758.16 1220.13 1765.34 1220.14 1770.61C1220.64 1922.94 1220.47 2075.26 1220.3 2227.59C1220.3 2229.41 1218.68 2231.24 1216.01 2236.86Z" fill="#FFA216"/>
<path d="M1710.57 1523.73C1710.57 1679.63 1710.66 1834.78 1710.19 1989.93C1710.17 1995.54 1706.03 2003.63 1701.29 2006.36C1625.18 2050.1 1548.59 2093.05 1472.26 2136.42C1419.75 2166.25 1367.5 2196.52 1315 2226.36C1307.9 2230.39 1300.04 2233.12 1289.99 2237.58C1289.99 2228.19 1289.99 2221.34 1289.99 2214.49C1289.99 2069.9 1290.35 1925.31 1289.52 1780.72C1289.42 1762.99 1296.38 1754.94 1311.16 1746.83C1381.37 1708.33 1450.89 1668.61 1520.61 1629.25C1581.74 1594.73 1642.8 1560.1 1703.93 1525.59C1705.6 1524.64 1707.75 1524.49 1710.57 1523.73Z" fill="#FFA216"/>
<path d="M2266.3 1125.93C2266.3 984.06 2266.3 842.2 2266.3 700.33C2269.11 700.27 2271.93 700.21 2274.74 700.15C2314.2 721.37 2353.97 742.05 2393.05 763.94C2460.98 801.98 2528.5 840.74 2596.16 879.26C2614.82 889.89 2633.34 900.77 2654.48 913.01C2616.17 935.2 2580.69 956.02 2544.95 976.39C2473.66 1017.02 2402.32 1057.58 2330.79 1097.79C2310.86 1108.99 2290.17 1118.9 2269.83 1129.39C2268.65 1128.24 2267.48 1127.08 2266.3 1125.93Z" fill="#FFA216"/>
<path d="M2266.3 1125.93C2267.48 1127.09 2268.65 1128.24 2269.83 1129.4C2268.65 1128.24 2267.48 1127.08 2266.3 1125.93Z" fill="#FFA216"/>
<path d="M1776.33 1406.7C1777.7 1406.71 1779.07 1406.77 1780.43 1406.88C1779.33 1407.85 1778.23 1408.83 1777.14 1409.8C1776.87 1408.77 1776.6 1407.73 1776.33 1406.7Z" fill="#FFA216"/>
<path d="M2266.3 1683.29C2267.67 1683.3 2269.04 1683.36 2270.4 1683.47C2269.3 1684.44 2268.2 1685.42 2267.11 1686.39C2266.84 1685.36 2266.57 1684.32 2266.3 1683.29Z" fill="#FFA216"/>
<path d="M2196.28 1725.13C2197.46 1723.98 2198.64 1722.82 2199.82 1721.67C2198.64 1722.83 2197.46 1723.98 2196.28 1725.13Z" fill="#FFA216"/>
<path d="M3606.61 1918.79V813.29H4242.61L4409.11 979.79V1239.29L4337.11 1320.29L4458.61 1440.29V1752.29L4292.11 1918.79H3606.61ZM3794.11 1257.29H4155.61L4220.11 1182.29V1044.29L4154.11 978.29H3794.11V1257.29ZM3794.11 1753.79H4203.61L4269.61 1687.79V1488.29L4203.61 1422.29H3794.11V1753.79ZM4820.12 1918.79L4653.62 1752.29V1134.29H4835.12V1708.79L4898.12 1777.79H5049.62L5208.62 1621.79V1134.29H5390.12V1918.79H5208.62V1806.29L5094.62 1918.79H4820.12ZM5614.73 1048.79V861.29H5796.23V1048.79H5614.73ZM5614.73 1918.79V1134.29H5796.23V1918.79H5614.73ZM6021.96 1918.79V813.29H6203.46V1918.79H6021.96ZM6580.68 1918.79L6414.18 1752.29V1302.29L6580.68 1134.29H6861.18L6976.68 1249.79V813.29H7158.18V1918.79H6976.68V1804.79L6861.18 1918.79H6580.68ZM6816.18 1777.79L6976.68 1620.29V1434.29L6816.18 1275.29H6661.68L6595.68 1341.29V1711.79L6661.68 1777.79H6816.18ZM7382.8 1048.79V861.29H7564.3V1048.79H7382.8ZM7382.8 1918.79V1134.29H7564.3V1918.79H7382.8ZM7790.02 1918.79V1134.29H7971.52V1273.79L8112.52 1134.29H8393.02L8559.52 1302.29V1918.79H8378.02V1344.29L8315.02 1275.29H8156.02L7971.52 1458.29V1918.79H7790.02ZM8819.33 2199.29V2050.79H9258.83L9326.33 1984.79L9324.83 1803.29L9209.33 1918.79H8928.83L8762.33 1752.29V1302.29L8928.83 1134.29H9209.33L9324.83 1249.79V1134.29H9506.33V2032.79L9339.83 2199.29H8819.33ZM9164.33 1777.79L9324.83 1618.79V1434.29L9164.33 1275.29H9009.83L8943.83 1341.29V1711.79L9009.83 1777.79H9164.33ZM9738.44 1918.79V813.29H10374.4L10540.9 979.79V1239.29L10468.9 1320.29L10590.4 1440.29V1752.29L10423.9 1918.79H9738.44ZM9925.94 1257.29H10287.4L10351.9 1182.29V1044.29L10285.9 978.29H9925.94V1257.29ZM9925.94 1753.79H10335.4L10401.4 1687.79V1488.29L10335.4 1422.29H9925.94V1753.79ZM10793 1918.79V813.29H10974.5V1918.79H10793ZM11351.7 1918.79L11185.2 1752.29V1302.29L11351.7 1134.29H11744.7L11911.2 1302.29V1752.29L11744.7 1918.79H11351.7ZM11432.7 1779.29L11663.7 1777.79L11729.7 1711.79V1341.29L11663.7 1275.29H11432.7L11366.7 1341.29V1711.79L11432.7 1779.29ZM12265.6 1918.79L12099.1 1752.29V979.79L12265.6 813.29H12787.6L12939.1 964.79L12820.6 1084.79L12711.1 978.29H12352.6L12286.6 1044.29L12288.1 1687.79L12352.6 1753.79H12724.6L12834.1 1645.79L12952.6 1767.29L12801.1 1918.79H12265.6ZM13087.1 1918.79V1747.79L13636.1 1746.29L13702.1 1680.29L13700.6 1494.29L13636.1 1428.29H13216.1L13049.6 1261.79V979.79L13216.1 813.29H13828.1V984.29L13304.6 985.79L13237.1 1050.29L13238.6 1197.29L13304.6 1264.79L13723.1 1263.29L13889.6 1429.79V1752.29L13723.1 1918.79H13087.1Z" fill="#FFFAF3"/>
</svg>
