<?xml version="1.0" encoding="utf-8"?>
<!-- Generator: Adobe Illustrator 23.1.1, SVG Export Plug-In . SVG Version: 6.00 Build 0)  -->
<svg version="1.1" id="Layer_1" xmlns="http://www.w3.org/2000/svg" xmlns:xlink="http://www.w3.org/1999/xlink" x="0px" y="0px"
	 viewBox="0 0 400 150" style="enable-background:new 0 0 400 150;" xml:space="preserve">
<style type="text/css">
	.st0{fill:#FFFFFF;}
</style>
<g>
	<path class="st0" d="M340.8,65.1c-2.6-3.3-7.1-5-13.8-5c-5.3,0-9.5,1.2-12.5,3.9c-3.2,2.6-4.7,6.2-4.7,10.7c0,4.8,1.5,8.6,4.4,10.8
		c2.7,2.4,6.7,3.6,12.8,3.6c4.2,0,16-0.7,17-9.8h-11.6c-0.9,3.9-3.7,3.9-5.4,3.9c-5.4,0-5.6-5.6-5.6-6h23
		C344.4,72.5,343.2,68.5,340.8,65.1z M321.4,71.3c0-1.5,0.6-2.9,1.7-3.9c1.1-1.1,2.4-1.7,3.9-1.7s2.8,0.4,3.8,1.5
		c1.1,1.1,1.6,2.4,1.6,4.1H321.4z"/>
	<path class="st0" d="M298.8,52.8l-12.5,3.9v4.2h-6v6.5h6V82c0,2.9,1.1,4.8,3.3,5.9c2.3,1.1,5,1.5,8.1,1.5c1.4,0,2.6,0,3.9-0.1
		c1.4-0.2,2.9-0.3,4.2-0.5v-6.3c-0.1,0-2.4,0.3-3.4,0.3s-2.2-0.2-2.8-0.8c-0.8-0.8-0.9-1.5-0.9-3V67.4h7.1v-6.5h-7.1L298.8,52.8
		L298.8,52.8z"/>
	<polygon class="st0" points="258.6,79.4 252.6,60.9 239,60.9 252.6,88.8 248.1,98.7 259.5,98.7 277.1,60.9 265.5,60.9 	"/>
	<path class="st0" d="M218.2,61c-2,0.5-3.7,1.6-5,2.5V49h-12.3v39.3h11.9c0.3-0.9,0.5-1.7,0.5-2.3c0-0.8,0-0.9,0-0.9h0.1
		c0.8,1.1,2,2,3.5,2.9c0.6,0.3,1.2,0.5,2,0.7c1.2,0.3,2.6,0.5,4.1,0.5c3.8,0,14.4-2.2,14.4-15.3c0-4.2-1.1-7.2-3.3-9.5
		C231.9,62.3,227.2,58.5,218.2,61z M223.3,80.3c-0.8,1.9-2.3,2.6-4.5,2.6c-1.8,0-3.2-0.7-4-1.9c-0.8-1.1-1.5-3.1-1.5-6
		c0-1.9,0.3-4.2,1-5.9c0.6-1.5,2.3-2.6,4.5-2.6c2.6,0,4,0.7,4.7,2.3c0.7,1.6,0.9,3.3,0.9,5.6S224.1,78.5,223.3,80.3z"/>
	<path class="st0" d="M193.4,69.7c0-6.8-5.6-9.6-13.1-9.6c-0.3,0-0.8,0-1.1,0c-5.7,0.1-11.9,2.1-12.5,8.1h5.6
		c0.3-2.9,3.3-4.4,6.9-4.5h0.3c5.3,0,8.6,1.7,8.6,6.9v0.8c-2.4,0-9.3,0.2-9.3,0.2c-9.8,0.3-14,3.2-14,9c0,5.1,4.7,8.9,11.6,8.9
		c5.2,0,9.3-1.5,11.9-4.8h0.2c0,1.2,0,2.6,0.1,3.8h5.1c-0.3-1.5-0.3-3.2-0.3-5.1V69.7z M188.1,76.3c0,9.4-9.8,9.5-10.4,9.5
		c-5.1,0-7.4-2.7-7.4-5.4c0-3.9,3.5-5,8.9-5.1c0,0,7.1-0.1,8.9-0.1V76.3z"/>
	<polygon class="st0" points="160,61.1 153.2,61.1 143.7,71.2 134.1,61.1 126.9,61.1 139.5,74.2 126,88.3 132.9,88.3 143.1,77.2 
		153.5,88.3 161.2,88.3 147,74.2 	"/>
	<path class="st0" d="M107.8,60h-0.4c-9.6,0.1-15.5,5.4-15.5,15.2c0,8.6,5.7,14,15.5,14.1h0.3c6,0,13.4-2,14.4-9.2h-5.6
		c-1.2,3.9-5.3,5.6-9.2,5.6c-6-0.2-9.6-4.1-10.1-9.6h10.1h15.5v-1.7C122.8,65.3,117.4,60,107.8,60z M107.3,72.4h-9.9
		c0.9-5.9,4.7-8.6,9.9-8.7h0.3c4.7,0,9.3,2.4,9.5,8.7H107.3z"/>
	<path class="st0" d="M378.5,74.9c-2.5-2-5.9-2.7-9.6-3.7c-3.8-0.9-7.5-1.3-7.5-3.2c0-2,6.5-3,6.7,1.1h11.4c0,0,1.3-8.9-15.4-8.9
		c-10.9,0-14.7,5-14.7,8.2s1.9,6.2,9.7,8.1c7.8,1.9,10.1,2.7,9.6,5c-0.6,2.3-7.7,3-7.7-2.1h-11.6c0,0-0.1,7.1,7.1,9.1
		s18.1,1.1,21.7-2.6C381.4,82.6,381,76.9,378.5,74.9z"/>
	<g>
		<path class="st0" d="M40.7,57.1h-0.5c-8.5,0.2-14.6,4.6-16.1,14.1h16.1H56C55.7,61,48.2,57.1,40.7,57.1z"/>
		<path class="st0" d="M73.5,53.4L42.2,35.3c-0.6-0.4-1.3-0.6-2.1-0.6c-0.7,0-1.4,0.2-2.1,0.6L6.8,53.4c-1.3,0.7-2.1,2.1-2.1,3.6
			v36.1c0,1.5,0.8,2.8,2.1,3.6l31.3,18.1c1.3,0.7,2.9,0.7,4.1,0l31.3-18.1c1.3-0.7,2.1-2.1,2.1-3.6V56.9
			C75.6,55.5,74.8,54.1,73.5,53.4z M65.2,77.3h-25H23.9c0.7,9,6.6,15.3,16.3,15.6c6.3,0,12.9-2.7,14.8-9h9
			c-1.7,11.7-13.6,14.8-23.4,14.8h-0.5c-15.8-0.2-25-9-25-22.9c0-15.8,9.5-24.3,25.1-24.6h0.7c15.6,0,24.3,8.5,24.3,23.4V77.3z"/>
	</g>
</g>
</svg>
