<svg version="1.2" xmlns="http://www.w3.org/2000/svg" viewBox="0 0 682 299" width="682" height="299"><style>.a{fill:#fff}</style><path class="a" d="m577.8 225.4q-12.4 0-22.2-4.8-9.6-4.7-15.4-12.8-5.5-8.3-5.5-19.2 0-14.1 9.1-22.9 9-8.8 25.9-12.1l29.5-6q8.8-1.8 12.1-5.6 3.3-3.8 3.3-11.1l3 29.5-42.3 9.1q-8.6 1.8-13.4 6.3-4.5 4.5-4.5 12.6 0 8.3 6.3 13.3 6.5 5.1 17.6 5.1 9.1 0 16.6-4.1 7.9-4 12.1-11 4.6-7.3 4.6-16.7v-44.1q0-9-6.6-14.1-6.3-5.3-17.4-5.3-14.1 0-21.6 7.1-7.6 7-8.9 19.9l-22.1-3q1.2-13.4 8-23 6.8-9.8 18.2-15.1 11.3-5.3 26.9-5.3 22.2 0 34.1 11.4 11.8 11.3 11.8 29.2v88.9h-21.9v-16.3q-3.3 8.3-13.4 14.3-9.8 5.8-23.9 5.8z"/><path class="a" d="m356 221.6v-125.7h22v14.1q2.5-7.3 11-12.6 8.6-5.3 19.9-5.3 11.1 0 20.5 4.8 9.3 4.8 12.1 14.4 3.2-8.8 12-13.9 9.1-5.3 20.2-5.3 19.2 0 29.2 11.1 10.1 11.1 10.1 32.3v86.1h-22.4v-83.1q0-12.6-5.6-18.9-5.2-6.6-15.6-6.6-11.3 0-17.6 8.1-6.1 7.8-6.1 22.9v77.6h-22.4v-83.1q0-12.6-5.5-18.9-5.3-6.6-15.7-6.6-11.3 0-17.6 8.1-6 7.8-6 22.9v77.6z"/><path fill-rule="evenodd" class="a" d="m270.3 267q-23.5 0-38.1-10.8-14.6-10.9-18.6-30.3l21.9-4.8q2.8 12.4 11.8 19.2 9.1 7 23 7.1 16.6 0 24.9-8.6 8.6-8.3 8.6-25v-19.9q-3.8 9.4-14.1 15.1-10.1 5.8-22.7 5.8-16.6 0-29.2-7.5-12.6-7.8-19.7-21.7-7-13.8-7-32 0-18.4 7-32.2 7.1-13.9 19.4-21.5 12.6-7.8 29.5-7.8 12.6 0 22.9 5.8 10.6 5.6 14.4 13.9v-15.9h21.9v117.9q0 16.7-6.5 28.5-6.6 12.1-19.2 18.4-12.3 6.3-30.2 6.3zm-0.5-72.1q16.1 0 25.7-11.3 9.8-11.3 9.8-30 0-18.9-9.8-30.2-9.9-11.4-25.7-11.4-16.2 0-26 11.4-9.6 11.3-9.6 30.2 0 18.7 9.9 30 9.8 11.3 25.7 11.3z"/><path class="a" d="m165.8 221.6v-125.7h22.4v125.7zm-0.2-141.8v-35.8h22.9v35.8z"/><path class="a" d="m37 221.6v-177.6h23.7v177.6zm4.8-75v-21.5h96.5v21.5zm0-80.9v-21.7h105.8v21.7z"/></svg>