<svg width="220" height="48" viewBox="0 0 197 41" fill="none" xmlns="http://www.w3.org/2000/svg" xmlns:xlink="http://www.w3.org/1999/xlink">
 <path d="M0 1.09269C1.89111 0.670012 4.81725 0.422852 7.45682 0.422852C14.5908 0.422852 18.8748 2.74879 18.8748 8.66751C18.8748 12.2961 17.3029 14.6925 14.8435 15.9964L20.7974 25.5091C20.333 25.8267 19.3343 26.0022 17.9426 26.0022C16.3707 26.0022 15.3381 25.8267 14.5884 25.5091L9.63087 17.2644H9.06862C7.85947 17.2644 6.25009 17.1581 5.39401 17.0172V25.5437C4.89464 25.8255 4.00228 26.0022 2.71817 26.0022C1.46912 26.0022 0.541699 25.8267 0.00725489 25.5437L0 1.09269ZM5.35169 5.1798V12.5433C6.36601 12.7088 7.39243 12.7915 8.42051 12.7904C11.5244 12.7904 13.4216 11.7015 13.4216 8.95526C13.4216 6.1362 11.424 4.97443 7.85947 4.97443C7.01903 4.96919 6.17978 5.03792 5.35169 5.1798Z" fill="white">
 </path>
 <path d="M27.6895 18.7455C27.9035 21.2123 29.687 22.4099 33.2202 22.4099C35.5042 22.4099 37.5018 21.9168 38.7822 21.3532C38.8886 22.6917 38.3179 24.4183 37.4981 25.3341C36.3204 26.0039 34.3229 26.5675 31.8611 26.5675C25.617 26.5675 22.2991 23.0093 22.2991 17.3007C22.2991 11.4166 25.8673 7.61133 31.4693 7.61133C36.6783 7.61133 39.0688 10.7826 39.0688 15.4333C39.0652 16.558 38.8849 17.6754 38.5344 18.7455H27.6895ZM34.2189 15.0441C34.5043 13.2124 33.8259 11.4155 31.2577 11.4155C29.045 11.4155 27.6895 12.8244 27.5468 15.0441H34.2189Z" fill="white">
 </path>
 <path d="M50.1314 22.0558C50.3796 20.5206 50.7253 19.0024 51.1665 17.5102L53.8774 8.42015C54.2704 8.27925 54.8761 8.10254 56.0188 8.10254C57.4819 8.10254 58.4806 8.38433 59.1227 8.80701L53.4856 25.5088C51.5945 26.0378 48.9537 26.2133 46.4206 26.2133L40.5695 8.8082C41.2115 8.38552 42.2103 8.10373 43.7133 8.10373C44.7834 8.10373 45.527 8.27925 45.8547 8.42134L48.7445 17.5114C49.2136 19.001 49.5832 20.5195 49.8509 22.057L50.1314 22.0558Z" fill="white">
 </path>
 <path d="M65.7594 18.7455C65.9734 21.2123 67.7569 22.4099 71.2901 22.4099C73.5742 22.4099 75.5717 21.9168 76.8522 21.3532C76.9586 22.6917 76.3878 24.4183 75.568 25.3341C74.3903 26.0039 72.3928 26.5675 69.931 26.5675C63.6869 26.5675 60.369 23.0093 60.369 17.3007C60.369 11.4166 63.9372 7.61133 69.5392 7.61133C74.7482 7.61133 77.1387 10.7826 77.1387 15.4333C77.1358 16.5579 76.9563 17.6752 76.6067 18.7455H65.7594ZM72.2888 15.0441C72.5742 13.2124 71.8959 11.4155 69.3276 11.4155C67.1149 11.4155 65.7594 12.8244 65.6168 15.0441H72.2888Z" fill="white">
 </path>
 <path d="M86.3113 25.579C85.847 25.8262 84.9909 26.0017 83.7419 26.0017C82.4928 26.0017 81.6367 25.8262 81.1374 25.579V8.77332C82.1047 8.24437 83.6355 7.96259 85.3476 7.96259L85.633 10.8521H85.9183C86.7744 9.02048 88.5942 7.61035 91.8432 7.61035C94.5553 7.61035 97.7681 8.56556 97.7681 14.3756V25.5802C97.3037 25.8274 96.4477 26.0029 95.1986 26.0029C93.9495 26.0029 93.0935 25.8274 92.5941 25.5802V15.2914C92.5941 13.4598 91.952 12.2969 89.8469 12.2969C87.992 12.2969 86.957 13.2127 86.3149 14.3052L86.3113 25.579Z" fill="white">
 </path>
 <path d="M113.928 23.7476C113.144 25.3333 111.466 26.5667 108.326 26.5667C105.545 26.5667 102.401 25.6115 102.401 19.7608V9.01471C103.611 8.34487 105.328 7.95801 107.575 7.95801V18.8808C107.575 20.7829 108.18 21.8408 110.251 21.8408C111.928 21.8408 113.032 21.1363 113.677 20.3256V8.5968C114.176 8.34964 115.032 8.17412 116.281 8.17412C117.53 8.17412 118.386 8.35084 118.851 8.5968V25.4037C117.923 25.9327 116.46 26.2145 114.819 26.2145L114.215 23.7476H113.928Z" fill="white">
 </path>
 <path d="M128.129 18.7455C128.343 21.2123 130.126 22.4099 133.659 22.4099C135.943 22.4099 137.941 21.9168 139.221 21.3532C139.328 22.6917 138.757 24.4183 137.937 25.3341C136.76 26.0039 134.762 26.5675 132.3 26.5675C126.056 26.5675 122.738 23.0093 122.738 17.3007C122.738 11.4166 126.306 7.61133 131.908 7.61133C137.117 7.61133 139.508 10.7826 139.508 15.4333C139.504 16.5581 139.323 17.6754 138.972 18.7455H128.129ZM134.658 15.0441C134.943 13.2124 134.265 11.4155 131.697 11.4155C129.484 11.4155 128.129 12.8244 127.986 15.0441H134.658Z" fill="white">
 </path>
 <path d="M156.781 4.6865C151.749 4.6865 148.289 7.22377 148.289 13.3538C148.289 19.4839 151.714 21.9161 156.53 21.9161C158.587 21.8965 160.621 21.4913 162.524 20.7221C162.595 22.0259 161.953 24.2802 161.097 25.4086C159.563 26.1489 157.349 26.6766 154.853 26.6766C147.218 26.6766 142.722 21.8146 142.722 13.7108C142.723 4.96828 147.967 0 155.674 0C157.708 0 159.777 0.358204 161.097 1.12715C161.918 2.29012 162.275 4.36889 162.096 5.91872C160.384 5.10918 158.814 4.6865 156.781 4.6865Z" fill="white">
 </path>
 <path d="M175.192 24.0296C174.407 25.5819 172.73 26.5669 170.269 26.5669C167.125 26.5669 164.417 25.0147 164.417 20.93C164.417 16.6315 167.561 14.9755 171.697 14.9755C172.796 14.9621 173.891 15.1167 174.943 15.434V14.9408C174.943 12.7916 173.873 12.0167 171.518 12.0167C169.517 12.0154 167.551 12.5237 165.808 13.4925C165.38 12.1182 165.558 9.93433 166.379 8.77137C167.664 8.0669 169.876 7.6084 172.516 7.6084C177.654 7.6084 180.116 9.39942 180.116 14.6196V20.7151C180.116 21.8076 180.615 22.0536 181.325 22.0536C181.867 22.0631 182.4 21.9162 182.859 21.6309C183.002 23.0398 182.574 24.7664 181.932 25.7526C181.182 26.2457 180.183 26.5633 178.971 26.5633C176.902 26.5633 175.827 25.6822 175.474 24.0261L175.192 24.0296ZM175.049 18.8154C174.299 18.5268 173.499 18.3833 172.694 18.3927C170.625 18.3927 169.59 19.2381 169.59 20.5778C169.59 21.9521 170.625 22.4452 172.052 22.4452C173.193 22.4452 174.336 22.087 175.049 21.2118V18.8154Z" fill="white">
 </path>
 <path d="M190.971 12.6569H195.734C195.949 12.2319 196.056 11.3435 196.056 10.4588C196.056 9.57401 195.949 8.68686 195.734 8.2606H190.971V3.01172C188.965 3.04754 187.068 3.50843 185.777 4.42901V8.25701H183.736C183.271 9.39133 183.021 11.1226 183.021 12.6522H185.779L185.709 25.1057C185.709 26.4776 185.467 28.2316 184.672 28.7821C180.891 31.4244 173.201 30.1456 166.144 29.4209C156.007 28.3797 147.251 27.0114 145.797 32.5504C145.028 35.4769 146.027 37.3467 146.998 38.401C148.95 40.518 152.396 41.0004 155.132 41.0004C156.417 40.999 157.701 40.8996 158.972 40.7031C159.618 40.5994 160.197 40.2463 160.58 39.7214C160.963 39.1966 161.12 38.543 161.015 37.9043C160.798 36.5742 159.522 35.6357 158.182 35.8817C155.371 36.3999 151.402 37.5533 149.88 35.902C149.365 35.3444 149.455 33.9748 149.88 33.551C151.012 31.8794 158.297 32.5182 165.632 33.496C173.733 34.3319 182.121 35.5032 186.884 33.151C188.748 32.2304 190.971 30.0871 190.971 25.1057V12.6569Z" fill="white">
 </path>
</svg>